<mxfile host="app.diagrams.net" modified="2023-05-09T07:51:31.900Z" agent="Mozilla/5.0 (Macintosh; Intel Mac OS X 10_15_7) AppleWebKit/537.36 (KHTML, like Gecko) Chrome/113.0.0.0 Safari/537.36" etag="G6jS-_tS2QWkUQYSlnUf" version="21.2.9" type="github">
  <diagram name="Page-1" id="2YBvvXClWsGukQMizWep">
    <mxGraphModel dx="1263" dy="705" grid="1" gridSize="10" guides="1" tooltips="1" connect="1" arrows="1" fold="1" page="1" pageScale="1" pageWidth="850" pageHeight="1100" math="0" shadow="0">
      <root>
        <mxCell id="0" />
        <mxCell id="1" parent="0" />
        <mxCell id="1TlWgZNt4ziFj37QnjNS-22" value="" style="rounded=0;whiteSpace=wrap;html=1;" vertex="1" parent="1">
          <mxGeometry x="320" y="40" width="110" height="140" as="geometry" />
        </mxCell>
        <mxCell id="1TlWgZNt4ziFj37QnjNS-2" value="" style="whiteSpace=wrap;html=1;aspect=fixed;" vertex="1" parent="1">
          <mxGeometry x="120" y="40" width="80" height="80" as="geometry" />
        </mxCell>
        <mxCell id="1TlWgZNt4ziFj37QnjNS-20" value="" style="edgeStyle=orthogonalEdgeStyle;rounded=0;orthogonalLoop=1;jettySize=auto;html=1;entryX=0.5;entryY=0;entryDx=0;entryDy=0;" edge="1" parent="1" source="1TlWgZNt4ziFj37QnjNS-4" target="1TlWgZNt4ziFj37QnjNS-5">
          <mxGeometry relative="1" as="geometry" />
        </mxCell>
        <mxCell id="1TlWgZNt4ziFj37QnjNS-4" value="Routers" style="rounded=0;whiteSpace=wrap;html=1;" vertex="1" parent="1">
          <mxGeometry x="330" y="50" width="90" height="40" as="geometry" />
        </mxCell>
        <mxCell id="1TlWgZNt4ziFj37QnjNS-5" value="Services" style="rounded=0;whiteSpace=wrap;html=1;" vertex="1" parent="1">
          <mxGeometry x="330" y="120" width="90" height="40" as="geometry" />
        </mxCell>
        <mxCell id="1TlWgZNt4ziFj37QnjNS-6" value="" style="endArrow=classic;html=1;rounded=0;exitX=1;exitY=0.25;exitDx=0;exitDy=0;entryX=0;entryY=0.25;entryDx=0;entryDy=0;" edge="1" parent="1" source="1TlWgZNt4ziFj37QnjNS-2" target="1TlWgZNt4ziFj37QnjNS-4">
          <mxGeometry width="50" height="50" relative="1" as="geometry">
            <mxPoint x="200" y="70" as="sourcePoint" />
            <mxPoint x="320" y="60" as="targetPoint" />
          </mxGeometry>
        </mxCell>
        <mxCell id="1TlWgZNt4ziFj37QnjNS-7" value="" style="endArrow=classic;html=1;rounded=0;exitX=0;exitY=0.75;exitDx=0;exitDy=0;" edge="1" parent="1" source="1TlWgZNt4ziFj37QnjNS-4">
          <mxGeometry width="50" height="50" relative="1" as="geometry">
            <mxPoint x="320" y="79.58" as="sourcePoint" />
            <mxPoint x="200" y="80" as="targetPoint" />
          </mxGeometry>
        </mxCell>
        <mxCell id="1TlWgZNt4ziFj37QnjNS-8" value="HTTP-requests" style="text;html=1;align=center;verticalAlign=middle;resizable=0;points=[];autosize=1;strokeColor=none;fillColor=none;" vertex="1" parent="1">
          <mxGeometry x="210" y="55" width="100" height="30" as="geometry" />
        </mxCell>
        <mxCell id="1TlWgZNt4ziFj37QnjNS-15" value="" style="endArrow=classic;html=1;rounded=0;entryX=0.692;entryY=0;entryDx=0;entryDy=0;entryPerimeter=0;" edge="1" parent="1" target="1TlWgZNt4ziFj37QnjNS-17">
          <mxGeometry width="50" height="50" relative="1" as="geometry">
            <mxPoint x="390" y="160" as="sourcePoint" />
            <mxPoint x="390" y="197" as="targetPoint" />
          </mxGeometry>
        </mxCell>
        <mxCell id="1TlWgZNt4ziFj37QnjNS-16" value="" style="endArrow=classic;html=1;rounded=0;exitX=0.338;exitY=-0.017;exitDx=0;exitDy=0;exitPerimeter=0;" edge="1" parent="1" source="1TlWgZNt4ziFj37QnjNS-17">
          <mxGeometry width="50" height="50" relative="1" as="geometry">
            <mxPoint x="242" y="260" as="sourcePoint" />
            <mxPoint x="362" y="160" as="targetPoint" />
          </mxGeometry>
        </mxCell>
        <mxCell id="1TlWgZNt4ziFj37QnjNS-17" value="Database" style="whiteSpace=wrap;html=1;aspect=fixed;" vertex="1" parent="1">
          <mxGeometry x="335" y="200" width="80" height="80" as="geometry" />
        </mxCell>
        <mxCell id="1TlWgZNt4ziFj37QnjNS-23" value="Client" style="text;html=1;strokeColor=none;fillColor=none;align=center;verticalAlign=middle;whiteSpace=wrap;rounded=0;" vertex="1" parent="1">
          <mxGeometry x="130" y="10" width="60" height="30" as="geometry" />
        </mxCell>
        <mxCell id="1TlWgZNt4ziFj37QnjNS-24" value="Server" style="text;html=1;strokeColor=none;fillColor=none;align=center;verticalAlign=middle;whiteSpace=wrap;rounded=0;" vertex="1" parent="1">
          <mxGeometry x="345" y="10" width="60" height="30" as="geometry" />
        </mxCell>
      </root>
    </mxGraphModel>
  </diagram>
</mxfile>
